<svg id="10015.io" viewBox="0 0 1200 630" xmlns="http://www.w3.org/2000/svg"><defs><pattern id="svg-pattern" x="0" y="0" width="198" height="198" patternUnits="userSpaceOnUse" patternTransform="translate(30, 30) rotate(321) skewX(0)"><svg width="168" height="168" viewBox="0 0 100 100"><g fill="rgba(71, 212, 255, 0.2)" opacity="1"><path d="M50 100C56.4721 100 61.7188 94.7533 61.7188 88.2812C61.7188 81.8092 56.4721 76.5625 50 76.5625C43.5279 76.5625 38.2812 81.8092 38.2812 88.2812C38.2812 94.7533 43.5279 100 50 100Z"></path><path d="M50 0C33.1994 0 19.5312 13.6682 19.5312 30.4688V33.3984H42.9688V30.4688C42.9688 26.5916 46.1229 23.4375 50 23.4375C53.8771 23.4375 57.0312 26.5916 57.0312 30.4688C57.0312 32.5348 56.1244 34.4902 54.543 35.8342L38.2812 49.6598V70.7031H61.7188V60.4965L69.7219 53.6924C76.5516 47.8889 80.4688 39.4244 80.4688 30.4688C80.4688 13.6682 66.8006 0 50 0V0Z"></path></g></svg></pattern></defs><rect x="0" y="0" width="100%" height="100%" fill="#010103"></rect><rect x="0" y="0" width="100%" height="100%" fill="url(#svg-pattern)"></rect></svg>